<?xml version="1.0" standalone="yes"?>
<svg xmlns="http://www.w3.org/2000/svg" width="400" height="600">
<path style="fill:#fefefe; stroke:none;" d="M0 0L0 600L400 600L400 0L0 0z"/>
<path style="fill:#ab3479; stroke:none;" d="M118 76L118 95L99 95L99 114L80 114C80.0082 124.589 85.9656 130.096 92.3889 138C100.528 148.016 108.257 158.501 117 168L118 168C128.484 157.603 141.901 139.577 155 133.028C161.201 129.927 172.18 132 179 132L234 132C250.79 132 256.378 139.378 268 151C270.759 153.759 278.995 159.474 277.793 163.996C276.383 169.302 266.827 175.175 263 179C248.993 193.001 234.682 206.885 220 220.17C185.294 251.573 153.706 286.427 119 317.83C104.989 330.508 91.4445 343.712 78 356.996C72.9625 361.974 65.2544 366.547 62.0278 373C56.9895 383.076 61 403.763 61 415L80 415L80 434L99 434L99 453L118 453L118 472L286 472L286 453L305 453L305 434L324 434L323.411 420L312.08 405L287 376C284.607 384.526 275.146 390.162 269 396.039C262.688 402.075 255.323 413.328 247 416.397C240.305 418.865 230.09 417 223 417L169 417C152.21 417 146.622 409.622 135 398C132.33 395.33 125.066 390.301 125.631 386C126.371 380.367 136.193 374.699 140 370.985C153.992 357.336 168.19 343.805 182 330C215.513 296.5 248.868 261.959 284 230.17C296.787 218.6 308.387 205.839 321 194.09C327.663 187.883 337.829 181.287 341.972 173C346.797 163.35 343 143.751 343 133L324 133L324 114L305 114L305 95L286 95L286 77L118 76z"/>
<path style="fill:#ada1a8; stroke:none;" d="M228 76L228 77L286 77L267 76L228 76M117 77L117 95L118 95L117 77M98 96L98 114L99 114L98 96M81 124L82 125L81 124M82 125L83 126L82 125M85 129L86 130L85 129M86 130L87 131L86 130M154 132L155 133L154 132z"/>
<path style="fill:#ab3479; stroke:none;" d="M61 133L61 370C74.9467 357.812 85.7473 339.559 97.2106 325C103.153 317.453 112.563 308.95 116.143 300C120.559 288.958 116 270.827 116 259C116 239.006 120.317 213.394 115.582 194C112.87 182.893 102.658 170.817 96.7994 161C92.6988 154.129 86.3602 136.781 78.8148 133.603C73.9553 131.557 66.2189 133 61 133z"/>
<path style="fill:#ada1a8; stroke:none;" d="M80 133L81 134L80 133M153 133L154 134L153 133M152 134L153 135L152 134M81 135L82 136L81 135M90 135L91 136L90 135M151 135L152 136L151 135M91 136L92 137L91 136M150 136L151 137L150 136M149 137L150 138L149 137M148 138L149 139L148 138M147 139L148 140L147 139M84 140L85 141L84 140M94 140L95 141L94 140M146 140L147 141L146 140M95 141L96 142L95 141M145 141L146 142L145 141M144 142L145 143L144 142M87 145L88 146L87 145M99 146L100 147L99 146M88 147L89 148L88 147M90 150L91 151L90 150M102 150L103 151L102 150M103 151L104 152L103 151M91 152L92 153L91 152M93 155L94 156L93 155M107 156L108 157L107 156M94 157L95 158L94 157M108 157L109 158L108 157M111 161L112 162L111 161M124 161L125 162L124 161M97 162L98 163L97 162M112 162L113 163L112 162M123 162L124 163L123 162M279.333 162.667L279.667 163.333L279.333 162.667M122 163L123 164L122 163M121 164L122 165L121 164M278 164L279 165L278 164M120 165L121 166L120 165M277 165L278 166L277 165M115 166L116 167L115 166M119 166L120 167L119 166M276 166L277 167L276 166M100 167L101 168L100 167M116 167L117 168L116 167M118 167L119 168L118 167M275 167L276 168L275 167M117 168L118 169L117 168M274 168L275 169L274 168M101 169L102 170L101 169M273 169L274 170L273 169M342 173L343 174L342 173M104 174L105 175L104 174M341 174L342 175L341 174z"/>
<path style="fill:#ab3479; stroke:none;" d="M342 176C330.177 192.447 317.025 208.021 304.576 224C298.993 231.165 290.916 238.716 287.14 247C282.838 256.437 287 270.939 287 281L287 323C287 329.531 285.7 337.688 287.51 344C290.197 353.37 298.683 362.747 303.808 371C310.051 381.055 316.571 390.941 322.808 401C325.298 405.016 327.95 411.553 332.185 413.972C335.218 415.704 339.639 415 343 415L343 247L343 198L342 176z"/>
<path style="fill:#ada1a8; stroke:none;" d="M106 177L107 178L106 177M340 178L341 179L340 178M107 179L108 180L107 179M339 179L340 180L339 179M260 181L261 182L260 181M259 182L260 183L259 182M337 182L338 183L337 182M258 183L259 184L258 183M336 183L337 184L336 183M110 184L111 185L110 184M257 184L258 185L257 184M335 184L336 185L335 184M256 185L257 186L256 185M255 186L256 187L255 186M112 187L113 188L112 187M254 187L255 188L254 187M333 187L334 188L333 187M253 188L254 189L253 188M332 188L333 189L332 188M113 189L114 190L113 189M252 189L253 190L252 189M251 190L252 191L251 190M250 191L251 192L250 191M323 191L324 192L323 191M115 192L116 193L115 192M249 192L250 193L249 192M322 192L323 193L322 192M329 192L330 193L329 192M248 193L249 194L248 193M321 193L322 194L321 193M328 193L329 194L328 193M320 194L321 195L320 194M319 195L320 196L319 195M318 196L319 197L318 196M326 196L327 197L326 196M317 197L318 198L317 197M325 197L326 198L325 197M316 198L317 199L316 198M324 198L325 199L324 198M315 199L316 200L315 199M314 200L315 201L314 200M313 201L314 202L313 201M322 201L323 202L322 201M312 202L313 203L312 202M321 202L322 203L321 202M311 203L312 204L311 203M310 204L311 205L310 204M235 205L236 206L235 205M309 205L310 206L309 205M234 206L235 207L234 206M308 206L309 207L308 206M318 206L319 207L318 206M233 207L234 208L233 207M307 207L308 208L307 207M317 207L318 208L317 207M232 208L233 209L232 208M306 208L307 209L306 208M116 209L116 280L117 280L117 231L116 209M231 209L232 210L231 209M305 209L306 210L305 209M230 210L231 211L230 210M304 210L305 211L304 210M315 210L316 211L315 210M229 211L230 212L229 211M303 211L304 212L303 211M314 211L315 212L314 211M228 212L229 213L228 212M313 212L314 213L313 212M227 213L228 214L227 213M226 214L227 215L226 214M225 215L226 216L225 215M311 215L312 216L311 215M224 216L225 217L224 216M310 216L311 217L310 216M223 217L224 218L223 217M307 220L308 221L307 220M306 221L307 222L306 221M304 224L305 225L304 224M303 225L304 226L303 225M285 228L286 229L285 228M210 229L211 230L210 229M284 229L285 230L284 229M300 229L301 230L300 229M209 230L210 231L209 230M283 230L284 231L283 230M299 230L300 231L299 230M208 231L209 232L208 231M282 231L283 232L282 231M207 232L208 233L207 232M281 232L282 233L281 232M206 233L207 234L206 233M280 233L281 234L280 233M297 233L298 234L297 233M205 234L206 235L205 234M279 234L280 235L279 234M296 234L297 235L296 234M204 235L205 236L204 235M278 235L279 236L278 235M295 235L296 236L295 235M203 236L204 237L203 236M277 236L278 237L277 236M202 237L203 238L202 237M276 237L277 238L276 237M201 238L202 239L201 238M275 238L276 239L275 238M293 238L294 239L293 238M200 239L201 240L200 239M274 239L275 240L274 239M292 239L293 240L292 239M199 240L200 241L199 240M273 240L274 241L273 240M198 241L199 242L198 241M272 241L273 242L272 241M271 242L272 243L271 242M270 243L271 244L270 243M289 243L290 244L289 243M269 244L270 245L269 244M288 244L289 245L288 244M268 245L269 246L268 245M267 246L268 247L267 246M286 247L287 248L286 247M183 255L184 256L183 255M182 256L183 257L182 256M181 257L182 258L181 257M180 258L181 259L180 258M179 259L180 260L179 259M178 260L179 261L178 260M177 261L178 262L177 261M176 262L177 263L176 262M175 263L176 264L175 263M174 264L175 265L174 264M173 265L174 266L173 265M247 265L248 266L247 265M172 266L173 267L172 266M246 266L247 267L246 266M171 267L172 268L171 267M245 267L246 268L245 267M244 268L245 269L244 268M243 269L244 270L243 269M286 269L286 339L287 339L287 291L286 269M242 270L243 271L242 270M241 271L242 272L241 271M240 272L241 273L240 272M239 273L240 274L239 273M238 274L239 275L238 274M237 275L238 276L237 275M236 276L237 277L236 276M235 277L236 278L235 277M234 278L235 279L234 278M233 279L234 280L233 279M232 280L233 281L232 280M231 281L232 282L231 281M230 282L231 283L230 282M229 283L230 284L229 283M153 284L154 285L153 284M152 285L153 286L152 285M151 286L152 287L151 286M150 287L151 288L150 287M149 288L150 289L149 288M148 289L149 290L148 289M147 290L148 291L147 290M146 291L147 292L146 291M145 292L146 293L145 292M144 293L145 294L144 293M143 294L144 295L143 294M142 295L143 296L142 295M141 296L142 297L141 296M116 300L117 301L116 300M115 301L116 302L115 301M209 302L210 303L209 302M208 303L209 304L208 303M207 304L208 305L207 304M112 305L113 306L112 305M206 305L207 306L206 305M111 306L112 307L111 306M205 306L206 307L205 306M204 307L205 308L204 307M203 308L204 309L203 308M109 309L110 310L109 309M202 309L203 310L202 309M108 310L109 311L108 310M201 310L202 311L201 310M107 311L108 312L107 311M200 311L201 312L200 311M199 312L200 313L199 312M198 313L199 314L198 313M105 314L106 315L105 314M197 314L198 315L197 314M104 315L105 316L104 315M121 315L122 316L121 315M196 315L197 316L196 315M120 316L121 317L120 316M195 316L196 317L195 316M119 317L120 318L119 317M194 317L195 318L194 317M118 318L119 319L118 318M193 318L194 319L193 318M101 319L102 320L101 319M117 319L118 320L117 319M192 319L193 320L192 319M100 320L101 321L100 320M191 320L192 321L191 320M98 323L99 324L98 323M97 324L98 325L97 324M96 325L97 326L96 325M109 326L110 327L109 326M108 327L109 328L108 327M94 328L95 329L94 328M107 328L108 329L107 328M93 329L94 330L93 329M106 329L107 330L106 329M105 330L106 331L105 330M104 331L105 332L104 331M103 332L104 333L103 332M90 333L91 334L90 333M102 333L103 334L102 333M89 334L90 335L89 334M101 334L102 335L101 334M100 335L101 336L100 335M99 336L100 337L99 336M98 337L99 338L98 337M86 338L87 339L86 338M97 338L98 339L97 338M85 339L86 340L85 339M171 339L172 340L171 339M170 340L171 341L170 340M169 341L170 342L169 341M83 342L84 343L83 342M168 342L169 343L168 342M82 343L83 344L82 343M167 343L168 344L167 343M166 344L167 345L166 344M165 345L166 346L165 345M164 346L165 347L164 346M288 346L289 347L288 346M79 347L80 348L79 347M163 347L164 348L163 347M78 348L79 349L78 348M162 348L163 349L162 348M289 348L290 349L289 348M161 349L162 350L161 349M290 349L291 350L290 349M84 350L85 351L84 350M160 350L161 351L160 350M83 351L84 352L83 351M159 351L160 352L159 351M291 351L292 352L291 351M75 352L76 353L75 352M82 352L83 353L82 352M158 352L159 353L158 352M74 353L75 354L74 353M81 353L82 354L81 353M157 353L158 354L157 353M80 354L81 355L80 354M156 354L157 355L156 354M293 354L294 355L293 354M79 355L80 356L79 355M155 355L156 356L155 355M72 356L73 357L72 356M78 356L79 357L78 356M154 356L155 357L154 356M71 357L72 358L71 357M77 357L78 358L77 357M153 357L154 358L153 357M295 357L296 358L295 357M70 358L71 359L70 358M76 358L77 359L76 358M152 358L153 359L152 358M75 359L76 360L75 359M296 359L297 360L296 359M74 360L75 361L74 360M297 360L298 361L297 360M68 361L69 362L68 361M73 361L74 362L73 361M67 362L68 363L67 362M72 362L73 363L72 362M298 362L299 363L298 362M300 365L301 366L300 365M64 366L65 367L64 366M63 367L64 368L63 367M301 367L302 368L301 367M302 368L303 369L302 368M61 370L62 371L61 370M303 370L304 371L303 370M305 373L306 374L305 373M287 375L288 376L287 375M133 376L134 377L133 376M307 376L308 377L307 376M132 377L133 378L132 377M131 378L132 379L131 378M308 378L309 379L308 378M130 379L131 380L130 379M286 379L287 380L286 379M290 379L291 380L290 379M309 379L310 380L309 379M129 380L130 381L129 380M285 380L286 381L285 380M291 380L292 381L291 380M128 381L129 382L128 381M284 381L285 382L284 381M292 381L293 382L292 381M310 381L311 382L310 381M127 382L128 383L127 382M283 382L284 383L283 382M126 383L127 384L126 383M282 383L283 384L282 383M125 384L126 385L125 384M281 384L282 385L281 384M312 384L313 385L312 384M124 385L125 386L124 385M280 385L281 386L280 385M295 385L296 386L295 385M279 386L280 387L279 386M296 386L297 387L296 386M313 386L314 387L313 386M124 387L125 388L124 387M278 387L279 388L278 387M297 387L298 388L297 387M314 387L315 388L314 387M125 388L126 389L125 388M277 388L278 389L277 388M126 389L127 390L126 389M276 389L277 390L276 389M315 389L316 390L315 389M127 390L128 391L127 390M275 390L276 391L275 390M128 391L129 392L128 391M274 391L275 392L274 391M300 391L301 392L300 391M129 392L130 393L129 392M301 392L302 393L301 392M317 392L318 393L317 392M130 393L131 394L130 393M302 393L303 394L302 393M131 394L132 395L131 394M318 394L319 395L318 394M132 395L133 396L132 395M319 395L320 396L319 395M133 396L134 397L133 396M134 397L135 398L134 397M305 397L306 398L305 397M320 397L321 398L320 397M135 398L136 399L135 398M306 398L307 399L306 398M321 398L322 399L321 398M136 399L137 400L136 399M307 399L308 400L307 399M137 400L138 401L137 400M322 400L323 401L322 400M138 401L139 402L138 401M139 402L140 403L139 402M140 403L141 404L140 403M310 403L311 404L310 403M324 403L325 404L324 403M141 404L142 405L141 404M311 404L312 405L311 404M142 405L143 406L142 405M312 405L313 406L312 405M325 405L326 406L325 405M143 406L144 407L143 406M326 406L327 407L326 406M144 407L145 408L144 407M145 408L146 409L145 408M256 408L257 409L256 408M327 408L328 409L327 408M146 409L147 410L146 409M255 409L256 410L255 409M315 409L316 410L315 409M147 410L148 411L147 410M254 410L255 411L254 410M316 410L317 411L316 410M148 411L149 412L148 411M253 411L254 412L253 411M317 411L318 412L317 411M329 411L330 412L329 411M149 412L150 413L149 412M252 412L253 413L252 412M150 413L151 414L150 413M251 413L252 414L251 413M151 414L152 415L151 414M250 414L251 415L250 414M331 414L332 415L331 414M79 415L80 416L79 415M152 415L153 416L152 415M249 415L250 416L249 415M320 415L321 416L320 415M153 416L154 417L153 416M248 416L249 417L248 416M321 416L322 417L321 416M322 417L323 418L322 417M98 434L98 453L99 453L98 434M305 434L306 435L305 434M117 453L117 472L118 472L117 453M286 453L287 454L286 453M63 486L63 487L85 487L63 486M177 486L177 487L205 487L177 486z"/>
<path style="fill:#191919; stroke:none;" d="M62 487L63 488L62 487z"/>
<path style="fill:#505050; stroke:none;" d="M62 528L63 528L63 488L86 488L77 487L63.6034 488.028L62 499L62 528z"/>
<path style="fill:#191919; stroke:none;" d="M176 487L177 488L176 487z"/>
<path style="fill:#505050; stroke:none;" d="M193 499L196 499L196 495L177 494L177 488L205 488L204.687 501L188 520L193 521L193 520L190 520C197.224 512.776 216.06 500.934 206 488C203.452 484.724 187.311 487 183 487C181.035 487 177.203 486.195 176 488C169.162 498.257 193.758 495.966 193 499z"/>
<path style="fill:#191919; stroke:none;" d="M205 487L206 488L205 487z"/>
<path style="fill:#ada1a8; stroke:none;" d="M61 488L61 527L62 527C62 515.828 65.3111 498.274 61 488z"/>
<path style="fill:#fefefe; stroke:none;" d="M63 488L63 527C69.1682 527 79.8607 529.069 85.24 525.722C94.3746 520.04 94.3746 494.96 85.24 489.278C79.8607 485.931 69.1683 488 63 488z"/>
<path style="fill:#ada1a8; stroke:none;" d="M85 488L85 490L87 488L85 488M175 488L175 493L176 493L175 488z"/>
<path style="fill:#fefefe; stroke:none;" d="M177 488L177 493L198 493C193.908 507.706 177 509.757 177 527L205 527L205 522L184 522C187.762 507.43 205 505.053 205 488L177 488z"/>
<path style="fill:#ada1a8; stroke:none;" d="M206 488L207.552 500L190 520C196.629 518.139 204.909 510.104 208 504L209 504L209 521L210 521L210 504L213 505L213 504L206 488z"/>
<path style="fill:#505050; stroke:none;" d="M86 489L86 490C92.24 494.754 95.065 520.606 88.7323 526.427C84.051 530.731 71.9169 528.731 66 528C71.1526 533.262 86.7784 532.745 91.5664 526.891C98.2167 518.76 95.6133 493.594 86 489z"/>
<path style="fill:#ada1a8; stroke:none;" d="M88 489L89 490L88 489M87 490L87 492L89 492L87 490M89 490L90 491L89 490M90 491L91 492L90 491M89 492L89 494L91 494L89 492M91 492L92 493L91 492M82 522L82 521L69 521L69 494L82 494C68.5221 488.344 68 498.898 68 509C68 512.122 66.9543 517.779 69.0278 520.397C71.3705 523.354 78.6502 522 82 522M92.3333 493.667L92.6667 494.333L92.3333 493.667M177 493L177 494L198 494L177 493z"/>
<path style="fill:#191919; stroke:none;" d="M69 494C69 500.32 66.1263 516.741 71 521C68.5476 510.699 67.1685 493.564 82 496L69 494z"/>
<path style="fill:#505050; stroke:none;" d="M81 494L82 495L81 494z"/>
<path style="fill:#191919; stroke:none;" d="M181 494L181 495L196 497C197.78 492.278 184.087 494 181 494z"/>
<path style="fill:#505050; stroke:none;" d="M197 494L197 497L198 497L197 494M74 521L74 520L71 520C71 506.888 69.1527 498.675 84 497L84 502C86.4941 495.362 77.8616 493.62 73.1481 496.319C67.5786 499.507 67.9397 518.989 74 521z"/>
<path style="fill:#ada1a8; stroke:none;" d="M83 495L84 496L83 495M93 495C94.4142 512.919 97.8047 531.962 74 530.981C70.3027 530.828 67.3767 529.32 64 528C68.4641 539.669 92.6292 532.908 96 523C101.704 529.524 119.499 540.278 128.253 531.258C132.218 527.172 126.373 522.439 132 518C139.033 533.082 156.601 537.431 163.397 519C165.821 512.425 163.445 505.018 161 499L160 499C161.114 510.189 164.11 516.146 154.999 524.984C152.49 527.418 149.817 530.308 146.015 529.292C139.046 527.431 139.005 518.67 132 518L131 517L132 515C128.34 515 130 502.454 130 499L129 499L129 507L128 507C126.521 504.188 123.889 499.478 121 503L122 503L123 501L123 504L124 505L126 504C126.513 507.49 128.319 511.421 127.657 514.96C126.023 523.69 112.34 521 106 521L106 522L126 521C127.106 535.666 111.938 531.528 102 528L103 525L102 525L101 527L101 523L100 523L99 525L99 522L99 521L96 522L96 504L99 505L99 504L93 495M178 495C180.779 500.055 190.213 501.811 194 497L178 495z"/>
<path style="fill:#191919; stroke:none;" d="M206 495L206 499L207 499L206 495z"/>
<path style="fill:#ada1a8; stroke:none;" d="M71 520L73 520C73 509.546 70.5828 499.062 84 500C81.1083 495.907 73.9057 496.078 71.7423 501.109C69.5092 506.301 71 514.423 71 520z"/>
<path style="fill:#191919; stroke:none;" d="M83 497L84 498L83 497z"/>
<path style="fill:#ada1a8; stroke:none;" d="M85 497L85 518L86 518L85 497M196 497L197 498L196 497z"/>
<path style="fill:#505050; stroke:none;" d="M102 498L103 499L102 498z"/>
<path style="fill:#191919; stroke:none;" d="M103 498L103 499L119 499L103 498z"/>
<path style="fill:#505050; stroke:none;" d="M119 498L120 499L119 498M130 498L130 516L131 516L130 498z"/>
<path style="fill:#191919; stroke:none;" d="M131 498L131 499L136 499L131 498z"/>
<path style="fill:#505050; stroke:none;" d="M136 498L137 499L136 498M153 498L154 499L153 498z"/>
<path style="fill:#191919; stroke:none;" d="M154 498L154 499L159 499L154 498z"/>
<path style="fill:#505050; stroke:none;" d="M159 498C159 509.716 161.097 528.257 144 528L144 529C160.878 536.198 163.962 508.079 159 498z"/>
<path style="fill:#191919; stroke:none;" d="M194 498L195 499L194 498z"/>
<path style="fill:#505050; stroke:none;" d="M216 498L217 499L216 498z"/>
<path style="fill:#191919; stroke:none;" d="M217 498L217 499L233 499L217 498z"/>
<path style="fill:#505050; stroke:none;" d="M233 498L234 499L233 498M244 498L244 528L245 528L244 498z"/>
<path style="fill:#191919; stroke:none;" d="M245 498L245 499L250 499L245 498z"/>
<path style="fill:#505050; stroke:none;" d="M250 498L251 499L250 498z"/>
<path style="fill:#ada1a8; stroke:none;" d="M255 498L253 501L250 499C250.009 501.173 250.559 507.346 253 503L251 501L255 502L257 500L255 498z"/>
<path style="fill:#505050; stroke:none;" d="M256 498L257 499L256 498z"/>
<path style="fill:#191919; stroke:none;" d="M257 498L257 499L267 499L257 498z"/>
<path style="fill:#505050; stroke:none;" d="M267 498L268 499L267 498M285 498L286 499L285 498z"/>
<path style="fill:#191919; stroke:none;" d="M286 498L286 499L302 499L286 498z"/>
<path style="fill:#505050; stroke:none;" d="M302 498L303 499L302 498M319 498L320 499L319 498z"/>
<path style="fill:#191919; stroke:none;" d="M320 498L320 499L342 499L320 498z"/>
<path style="fill:#505050; stroke:none;" d="M342 498L342 506L325 508L325 509L344 508L342 498z"/>
<path style="fill:#fefefe; stroke:none;" d="M73 520C86.084 519.954 84 510.368 84 500C70.1902 498.294 73 509.408 73 520z"/>
<path style="fill:#191919; stroke:none;" d="M92 499L92 522L93 522L92 499z"/>
<path style="fill:#ada1a8; stroke:none;" d="M101 499L103 501L103 499L101 499z"/>
<path style="fill:#fefefe; stroke:none;" d="M125 527L125 522C116.258 522 107.691 523.84 102 516L125 515C125 511.844 125.503 508.084 124.012 505.184C122.02 501.309 118.179 499.184 113.985 499.019C107.717 498.771 101.954 498.851 98.2778 504.76C93.9775 511.672 97.0483 525.593 106.093 526.867C112.191 527.725 118.844 527 125 527z"/>
<path style="fill:#ada1a8; stroke:none;" d="M119 499L119 501L121 499L119 499z"/>
<path style="fill:#fefefe; stroke:none;" d="M131 499C131 503.801 129.786 510.577 132.024 514.961C138.705 528.049 152.329 529 158.397 514.7C160.236 510.367 159 503.649 159 499L154 499C154 509.547 150.243 511.396 146 520L145 520L144 520C139.757 511.396 136 509.547 136 499L131 499z"/>
<path style="fill:#ada1a8; stroke:none;" d="M136 499L136 512L137 512L138 499L136 499M152 499L153 512L154 512L154 499L152 499z"/>
<path style="fill:#191919; stroke:none;" d="M193 499L194 500L193 499z"/>
<path style="fill:#ada1a8; stroke:none;" d="M203.333 499.667L203.667 500.333L203.333 499.667z"/>
<path style="fill:#191919; stroke:none;" d="M204 499L185 521L189 521L206 499L204 499z"/>
<path style="fill:#ada1a8; stroke:none;" d="M215 499L217 501L217 499L215 499z"/>
<path style="fill:#fefefe; stroke:none;" d="M239 527L239 522C230.258 522 221.691 523.84 216 516L239 516C239 512.701 239.626 508.575 238.157 505.518C236.233 501.516 232.26 499.187 227.985 499.019C221.717 498.771 215.954 498.851 212.278 504.76C207.978 511.672 211.048 525.593 220.093 526.867C226.191 527.725 232.844 527 239 527z"/>
<path style="fill:#ada1a8; stroke:none;" d="M233 499L233 501L235 499L233 499M243 499L243 507L242 507C240.521 504.188 237.889 499.478 235 503L236 503L237 501L237 505L240 504C240.513 507.49 242.319 511.421 241.657 514.96C240.023 523.69 226.34 521 220 521L220 522L240 521C241.106 535.666 225.938 531.528 216 528L217 525L216 525L215 527L215 523L214 523L213 525L213 522L213 521L210 522C214.927 529.877 233.274 540.242 242.258 531.258C246.61 526.905 245.256 504.376 243 499z"/>
<path style="fill:#fefefe; stroke:none;" d="M245 499L245 527L250 527C250 520.378 252.075 505.021 262 505.02C265.752 505.02 268.615 509.692 273 510C271.893 494.225 258.211 500.65 250 505L250 499L245 499z"/>
<path style="fill:#505050; stroke:none;" d="M255 499L254 501L256 501L255 499z"/>
<path style="fill:#ada1a8; stroke:none;" d="M267 499L267 501L269 499L267 499M284 499L286 501L286 499L284 499z"/>
<path style="fill:#fefefe; stroke:none;" d="M286.518 499.843C269.983 507.792 283.814 534.65 301.482 526.157C318.017 518.208 304.186 491.35 286.518 499.843z"/>
<path style="fill:#ada1a8; stroke:none;" d="M302 499L302 501L304 499L302 499M318 499L320 501L320 499L318 499z"/>
<path style="fill:#fefefe; stroke:none;" d="M335 520L314 522L314 527C320.146 527 329.868 528.856 335.482 526.157C340.071 523.951 343.586 518.638 339.597 514.363C334.166 508.543 326.209 512.837 321 506L342 504L342 499C335.854 499 326.132 497.144 320.518 499.843C315.929 502.049 312.414 507.362 316.403 511.637C321.646 517.255 329.9 513.696 335 520z"/>
<path style="fill:#ada1a8; stroke:none;" d="M343 499L344 508L329 508L329 509L337 509L337 510L324 510L324 511C332.117 511 354.429 512.707 343 499z"/>
<path style="fill:#505050; stroke:none;" d="M100.667 500.333L101.333 500.667L100.667 500.333M120.667 500.333L121.333 500.667L120.667 500.333M191 500L191 501L194 501L191 500M214.667 500.333L215.333 500.667L214.667 500.333M234.667 500.333L235.333 500.667L234.667 500.333M268 500L268 501L273 510L266 507C253.103 511.507 256.057 521.619 248 529C254.342 529.969 252.406 523.12 254.858 519C257.497 514.567 261.956 511.081 266 508C272.092 519.715 279.947 505.742 268 500z"/>
<path style="fill:#ada1a8; stroke:none;" d="M270 500L271 501L270 500z"/>
<path style="fill:#505050; stroke:none;" d="M283.667 500.333L284.333 500.667L283.667 500.333M303 500L303 501C308.887 505.352 311.648 522.262 304.877 527.107C299.94 530.639 292.519 528.698 287 528L287 529C292.806 531.794 302.799 532.745 307.772 527.772C314.758 520.785 311.49 504.08 303 500z"/>
<path style="fill:#ada1a8; stroke:none;" d="M305 500L306 501L305 500z"/>
<path style="fill:#505050; stroke:none;" d="M317.667 500.333L318.333 500.667L317.667 500.333z"/>
<path style="fill:#ada1a8; stroke:none;" d="M99 501L101 503L101 501L99 501z"/>
<path style="fill:#505050; stroke:none;" d="M122 501L122 503L124 503L122 501M137 501L138 511L139 511L137 501z"/>
<path style="fill:#ada1a8; stroke:none;" d="M190 501L191 502L190 501z"/>
<path style="fill:#191919; stroke:none;" d="M191 501L192 502L191 501z"/>
<path style="fill:#ada1a8; stroke:none;" d="M201 501L200 503L202 503L201 501M213 501L215 503L215 501L213 501z"/>
<path style="fill:#505050; stroke:none;" d="M236 501L236 503L238 503L236 501M251 504L254 501L252 501L251 504z"/>
<path style="fill:#ada1a8; stroke:none;" d="M269.333 501.667L269.667 502.333L269.333 501.667M271 501L272 502L271 501M282 501L284 503L284 501L282 501M304.333 501.667L304.667 502.333L304.333 501.667M306 501L307 502L306 501M316 501L318 503L318 501L316 501z"/>
<path style="fill:#191919; stroke:none;" d="M98 502L99 503L98 502z"/>
<path style="fill:#505050; stroke:none;" d="M99 502L100 503L99 502z"/>
<path style="fill:#ada1a8; stroke:none;" d="M138 502L138 514L139 514L140 512L140 516L143 515L140 502L138 502z"/>
<path style="fill:#505050; stroke:none;" d="M189 502L189 503L192 503L189 502z"/>
<path style="fill:#191919; stroke:none;" d="M212 502L213 503L212 502z"/>
<path style="fill:#505050; stroke:none;" d="M213 502L214 503L213 502z"/>
<path style="fill:#ada1a8; stroke:none;" d="M272 502L273 503L272 502z"/>
<path style="fill:#191919; stroke:none;" d="M281 502L282 503L281 502z"/>
<path style="fill:#505050; stroke:none;" d="M282 502L283 503L282 502z"/>
<path style="fill:#ada1a8; stroke:none;" d="M307 502L308 503L307 502z"/>
<path style="fill:#191919; stroke:none;" d="M315 502L316 503L315 502z"/>
<path style="fill:#505050; stroke:none;" d="M316 502L317 503L316 502M98 503L99 504L98 503M124 503L125 504L124 503z"/>
<path style="fill:#ada1a8; stroke:none;" d="M188 503L182 512L183 509L185 507L190 504L188 503z"/>
<path style="fill:#191919; stroke:none;" d="M189 503L190 504L189 503z"/>
<path style="fill:#ada1a8; stroke:none;" d="M199 503L198 505L199 503z"/>
<path style="fill:#fefefe; stroke:none;" d="M209 503L210 504L209 503z"/>
<path style="fill:#505050; stroke:none;" d="M212 503L213 504L212 503M238 503L239 504L238 503z"/>
<path style="fill:#ada1a8; stroke:none;" d="M271 503L271 505L273 505L271 503M273 503L274 504L273 503M280 503L280 505L282 505L280 503z"/>
<path style="fill:#505050; stroke:none;" d="M281 503L282 504L281 503z"/>
<path style="fill:#ada1a8; stroke:none;" d="M306 503L306 505L308 505L306 503M308 503L309 504L308 503M314 503L314 505L316 505L314 503z"/>
<path style="fill:#505050; stroke:none;" d="M315 503L316 504L315 503M96 504L96 522L97 522L96 504z"/>
<path style="fill:#ada1a8; stroke:none;" d="M106 504L106 505L116 505L106 504z"/>
<path style="fill:#505050; stroke:none;" d="M125 504L126 517C119.499 518.035 109.943 514.251 106 521C117.727 521 135.635 520.926 125 504M199 504L200 505L199 504M210 504L210 522L211 522L210 504z"/>
<path style="fill:#ada1a8; stroke:none;" d="M220 504L220 505L230 505L220 504z"/>
<path style="fill:#505050; stroke:none;" d="M239 504L240 517C233.499 518.035 223.943 514.251 220 521C231.727 521 249.635 520.926 239 504z"/>
<path style="fill:#ada1a8; stroke:none;" d="M260 504L260 505L264 505L260 504M274 504C274.288 506.126 275.802 510.527 273.498 512.002C270.02 514.229 266.181 508.36 262 510.661C252.635 515.817 256.103 529.926 245 528C253.729 541.409 255.958 517.219 263.001 513.748C267.881 511.342 272.258 517.012 278 514L278 521L279 521L279 505L278 505L278 509L277 509L274 504z"/>
<path style="fill:#505050; stroke:none;" d="M279 504C279 513.665 277.483 521.653 286 528L280.303 518.91L279 504z"/>
<path style="fill:#ada1a8; stroke:none;" d="M289 504L289 505L299 505L289 504M309 504C309.866 509.889 312.216 515.98 310.566 522C306.58 536.547 290.37 530.159 282 525C287.739 537.169 312.494 536.288 313 521L333 522L333 521L321 521L321 520L326 520L326 519L319 517L319 516L328 516L328 515L318 516L318 512L317 512L316 514L316 510L313 511L313 505L312 505L311 507L309 504z"/>
<path style="fill:#505050; stroke:none;" d="M313 504L314 511L315 511L313 504z"/>
<path style="fill:#ada1a8; stroke:none;" d="M323 504L323 505L342 505L323 504z"/>
<path style="fill:#505050; stroke:none;" d="M106.333 505.667L106.667 506.333L106.333 505.667z"/>
<path style="fill:#191919; stroke:none;" d="M103 509L103 510L119 510L116 507C116 510.359 110.797 509 108 509L108 508L115 507C111.315 502.783 106.573 506.473 103 509z"/>
<path style="fill:#505050; stroke:none;" d="M115 505L108 508L108 509L117 509L115 505z"/>
<path style="fill:#191919; stroke:none;" d="M137 505L139 512L137 505z"/>
<path style="fill:#505050; stroke:none;" d="M187 505L188 506L187 505z"/>
<path style="fill:#ada1a8; stroke:none;" d="M197 505L196 507L198 507L197 505z"/>
<path style="fill:#505050; stroke:none;" d="M220.333 505.667L220.667 506.333L220.333 505.667z"/>
<path style="fill:#191919; stroke:none;" d="M217 509L217 510L233 510L230 507C230 510.359 224.797 509 222 509L222 508L229 507C225.315 502.783 220.573 506.473 217 509z"/>
<path style="fill:#505050; stroke:none;" d="M229 505L222 508L222 509L231 509L229 505z"/>
<path style="fill:#191919; stroke:none;" d="M251 527L245 527L245 528C254.741 527.68 253.899 511.774 265 508C255.679 498.24 251 521.44 251 527z"/>
<path style="fill:#505050; stroke:none;" d="M263.333 505.667L263.667 506.333L263.333 505.667M289.333 505.667L289.667 506.333L289.333 505.667z"/>
<path style="fill:#191919; stroke:none;" d="M286 517L287 517C287.917 511.057 291.923 507.14 298 507C291.236 499.26 286.019 511.422 286 517z"/>
<path style="fill:#505050; stroke:none;" d="M298 505C292.099 509.488 288.212 509.823 286 518L292 521L292 520C284.463 512.938 294.849 508.962 301 508L301 513L302 513L298 505M323.333 505.667L323.667 506.333L323.333 505.667z"/>
<path style="fill:#191919; stroke:none;" d="M322 507L322 508L336 510L336 509L325 509L325 508L342 506C336.456 503.673 327.302 504.241 322 507z"/>
<path style="fill:#ada1a8; stroke:none;" d="M105 506L106 507L105 506M116.667 506.333L117.333 506.667L116.667 506.333z"/>
<path style="fill:#191919; stroke:none;" d="M160 506L160 516L161 516L160 506z"/>
<path style="fill:#ada1a8; stroke:none;" d="M218 506L218 508L220 506L218 506M230.667 506.333L231.333 506.667L230.667 506.333M258.667 506.333L259.333 506.667L258.667 506.333M264.667 506.333L265.333 506.667L264.667 506.333M287 506L287 508L289 506L287 506M299.667 506.333L300.333 506.667L299.667 506.333M321 506L321 508L323 506L321 506M104 507L105 508L104 507z"/>
<path style="fill:#505050; stroke:none;" d="M117 507L118 508L117 507M185 507L186 508L185 507z"/>
<path style="fill:#ada1a8; stroke:none;" d="M195 507L196 508L195 507z"/>
<path style="fill:#505050; stroke:none;" d="M231 507L232 508L231 507z"/>
<path style="fill:#191919; stroke:none;" d="M299 507L300 508L299 507z"/>
<path style="fill:#ada1a8; stroke:none;" d="M102.333 508.667L102.667 509.333L102.333 508.667z"/>
<path style="fill:#505050; stroke:none;" d="M103.667 508.333L104.333 508.667L103.667 508.333z"/>
<path style="fill:#ada1a8; stroke:none;" d="M112 508L112 509L116 509L112 508z"/>
<path style="fill:#505050; stroke:none;" d="M118 508L119 509L118 508z"/>
<path style="fill:#ada1a8; stroke:none;" d="M119.333 508.667L119.667 509.333L119.333 508.667z"/>
<path style="fill:#505050; stroke:none;" d="M194.667 508.333L195.333 508.667L194.667 508.333z"/>
<path style="fill:#ada1a8; stroke:none;" d="M216.333 508.667L216.667 509.333L216.333 508.667z"/>
<path style="fill:#505050; stroke:none;" d="M217.667 508.333L218.333 508.667L217.667 508.333z"/>
<path style="fill:#ada1a8; stroke:none;" d="M226 508L226 509L230 509L226 508z"/>
<path style="fill:#505050; stroke:none;" d="M232 508L233 509L232 508z"/>
<path style="fill:#ada1a8; stroke:none;" d="M233.333 508.667L233.667 509.333L233.333 508.667M256 508L257 509L256 508z"/>
<path style="fill:#505050; stroke:none;" d="M257 508L258 509L257 508z"/>
<path style="fill:#191919; stroke:none;" d="M265 508L266 509L265 508z"/>
<path style="fill:#ada1a8; stroke:none;" d="M267.333 508.667L267.667 509.333L267.333 508.667M285 508L285 518L286 518L285 508z"/>
<path style="fill:#505050; stroke:none;" d="M286.667 508.333L287.333 508.667L286.667 508.333z"/>
<path style="fill:#ada1a8; stroke:none;" d="M290 520L291 520C290.623 513.058 294.574 510.774 301 511C295.668 503.485 286.871 512.803 290 520z"/>
<path style="fill:#191919; stroke:none;" d="M300 508L301 509L300 508z"/>
<path style="fill:#ada1a8; stroke:none;" d="M302 508L302 518L303 518L302 508M322 508L323 509L322 508z"/>
<path style="fill:#505050; stroke:none;" d="M323.333 508.667L323.667 509.333L323.333 508.667M183 509L184 510L183 509M256 509L257 510L256 509M336 509L337 510L336 509z"/>
<path style="fill:#ada1a8; stroke:none;" d="M103 510L103 511L108 511L103 510M109.667 510.333L110.333 510.667L109.667 510.333M112 510L112 511L119 511L112 510z"/>
<path style="fill:#191919; stroke:none;" d="M126 510L126 516L127 516L126 510z"/>
<path style="fill:#505050; stroke:none;" d="M192.667 510.333L193.333 510.667L192.667 510.333z"/>
<path style="fill:#ada1a8; stroke:none;" d="M217 510L218 511L217 510M220 510L220 511L230 511L220 510M231.667 510.333L232.333 510.667L231.667 510.333z"/>
<path style="fill:#191919; stroke:none;" d="M240 510L240 516L241 516L240 510z"/>
<path style="fill:#ada1a8; stroke:none;" d="M254 510L255 511L254 510z"/>
<path style="fill:#505050; stroke:none;" d="M255 510L256 511L255 510z"/>
<path style="fill:#191919; stroke:none;" d="M273 510L271 511L271 512L273 510z"/>
<path style="fill:#fefefe; stroke:none;" d="M301 511C299.38 510.87 297.616 510.564 295.995 510.858C284.611 512.919 295.978 526.55 300.397 515.966C301.049 514.404 300.946 512.648 301 511z"/>
<path style="fill:#191919; stroke:none;" d="M309 510L309 522L310 522L309 510M313 510L314 511L313 510z"/>
<path style="fill:#505050; stroke:none;" d="M151 511L151 514L152 514L151 511z"/>
<path style="fill:#191919; stroke:none;" d="M152 511L153 512L152 511z"/>
<path style="fill:#505050; stroke:none;" d="M180 511L181 512L180 511z"/>
<path style="fill:#191919; stroke:none;" d="M181 511L182 512L181 511z"/>
<path style="fill:#505050; stroke:none;" d="M254 511L255 512L254 511M315 511L317 514L315 511z"/>
<path style="fill:#191919; stroke:none;" d="M337 511L338 512L337 511z"/>
<path style="fill:#505050; stroke:none;" d="M338 511C349.029 529.598 331.431 528 318 528C325.403 539.419 357.418 526.249 338 511M139 512L140 515L141 515L139 512z"/>
<path style="fill:#ada1a8; stroke:none;" d="M150 512L151 513L150 512M179 512L181 514L181 512L179 512M252.333 512.667L252.667 513.333L252.333 512.667z"/>
<path style="fill:#191919; stroke:none;" d="M316 512L317 513L316 512z"/>
<path style="fill:#ada1a8; stroke:none;" d="M338.333 512.667L338.667 513.333L338.333 512.667z"/>
<path style="fill:#191919; stroke:none;" d="M139 513L140 514L139 513z"/>
<path style="fill:#505050; stroke:none;" d="M149 513L147 515L147 516L149 513z"/>
<path style="fill:#191919; stroke:none;" d="M150 513L151 514L150 513z"/>
<path style="fill:#505050; stroke:none;" d="M178 513L176 528L177 528L178 513z"/>
<path style="fill:#191919; stroke:none;" d="M179 513L180 514L179 513z"/>
<path style="fill:#fefefe; stroke:none;" d="M314 513L313 520L320 520L314 513z"/>
<path style="fill:#191919; stroke:none;" d="M339 513L340 514L339 513z"/>
<path style="fill:#ada1a8; stroke:none;" d="M148 514L149 515L148 514M177 514L178 515L177 514z"/>
<path style="fill:#505050; stroke:none;" d="M188.333 514.667L188.667 515.333L188.333 514.667z"/>
<path style="fill:#ada1a8; stroke:none;" d="M250 514L250 527L251 527L250 514z"/>
<path style="fill:#505050; stroke:none;" d="M317 514L319 516L317 514z"/>
<path style="fill:#191919; stroke:none;" d="M318 514L319 515L318 514z"/>
<path style="fill:#ada1a8; stroke:none;" d="M340.333 514.667L340.667 515.333L340.333 514.667M102 518L103 518C108.281 513.999 118.557 516 125 516C119.872 513.848 105.236 513.009 102 518z"/>
<path style="fill:#505050; stroke:none;" d="M141 515L148 518L148 517L141 515z"/>
<path style="fill:#191919; stroke:none;" d="M142 515L143 516L142 515z"/>
<path style="fill:#ada1a8; stroke:none;" d="M149 515L150 516L149 515z"/>
<path style="fill:#191919; stroke:none;" d="M176 515L177 516L176 515z"/>
<path style="fill:#ada1a8; stroke:none;" d="M178 515L179 516L178 515M187 515L188 516L187 515M218 515L218 516L238 516L218 515M329.667 515.333L330.333 515.667L329.667 515.333z"/>
<path style="fill:#191919; stroke:none;" d="M342 515L343 516L342 515M103 516L103 517L105 519L126 517L103 516z"/>
<path style="fill:#505050; stroke:none;" d="M131 516L133 518L133 516L131 516z"/>
<path style="fill:#ada1a8; stroke:none;" d="M143 516L144 517L143 516M146 516L147 517L146 516z"/>
<path style="fill:#191919; stroke:none;" d="M147 516L148 517L147 516z"/>
<path style="fill:#ada1a8; stroke:none;" d="M157 516L151 523L157 516z"/>
<path style="fill:#191919; stroke:none;" d="M158 516C153.771 521.838 148.681 527.645 141 526L141 527C149.655 529.905 157.524 524.821 160 516L158 516z"/>
<path style="fill:#ada1a8; stroke:none;" d="M175 516C175 519.925 176.119 524.78 173 524L174 529L167 528C168.887 532.929 173.218 533.746 176 529L178 529C182.418 536.563 215.689 537.876 207 522L206 522C207.84 538.048 185.018 529.285 176 528L175 516z"/>
<path style="fill:#505050; stroke:none;" d="M186.333 516.667L186.667 517.333L186.333 516.667z"/>
<path style="fill:#ada1a8; stroke:none;" d="M216.333 516.667L216.667 517.333L216.333 516.667z"/>
<path style="fill:#191919; stroke:none;" d="M217 516L217 517L219 519L240 517L217 516z"/>
<path style="fill:#505050; stroke:none;" d="M319 516L320 517L319 516z"/>
<path style="fill:#191919; stroke:none;" d="M320 516L320 517L334 519C330.267 515.076 325.052 516 320 516z"/>
<path style="fill:#505050; stroke:none;" d="M332.333 516.667L332.667 517.333L332.333 516.667z"/>
<path style="fill:#ada1a8; stroke:none;" d="M343 516C347.148 534.892 326.328 531.219 315 528C320.19 541.567 358.58 529.751 343 516z"/>
<path style="fill:#191919; stroke:none;" d="M83 517L84 518L83 517z"/>
<path style="fill:#505050; stroke:none;" d="M84 517L85 518L84 517M103.667 517.333L104.333 517.667L103.667 517.333z"/>
<path style="fill:#ada1a8; stroke:none;" d="M142 517L143 518L142 517z"/>
<path style="fill:#505050; stroke:none;" d="M217.667 517.333L218.333 517.667L217.667 517.333z"/>
<path style="fill:#191919; stroke:none;" d="M300 517L301 518L300 517z"/>
<path style="fill:#505050; stroke:none;" d="M301 517L302 518L301 517M321 517L321 518L326 519L326 520L321 520L321 521L333 521C330.469 516.452 325.735 517.276 321 517z"/>
<path style="fill:#ada1a8; stroke:none;" d="M333 517L334 518L333 517M82 518L82 520L84 520L82 518z"/>
<path style="fill:#505050; stroke:none;" d="M83 518L84 519L83 518z"/>
<path style="fill:#ada1a8; stroke:none;" d="M104 518L104 520L106 520L104 518z"/>
<path style="fill:#191919; stroke:none;" d="M133 518L134 519L133 518M144.667 518.333L145.333 518.667L144.667 518.333z"/>
<path style="fill:#ada1a8; stroke:none;" d="M184 518L184 522L205 522L205 520C198.411 520 189.055 522.825 184 518M218 518L218 520L220 520L218 518M287 518L287 520L289 520L287 518M299 518L299 520L301 520L299 518z"/>
<path style="fill:#505050; stroke:none;" d="M300 518L301 519L300 518M334 518L335 519L334 518M81.3333 519.667L81.6667 520.333L81.3333 519.667M134 519L135 520L134 519z"/>
<path style="fill:#ada1a8; stroke:none;" d="M144.667 519.333L145.333 519.667L144.667 519.333z"/>
<path style="fill:#505050; stroke:none;" d="M155 519L156 520L155 519M298.333 519.667L298.667 520.333L298.333 519.667z"/>
<path style="fill:#ada1a8; stroke:none;" d="M333.667 519.333L334.333 519.667L333.667 519.333z"/>
<path style="fill:#505050; stroke:none;" d="M135 520L138 523L135 520z"/>
<path style="fill:#ada1a8; stroke:none;" d="M166 520L166 522L171 522L171 527L172 527L173 521L166 520z"/>
<path style="fill:#fefefe; stroke:none;" d="M242 520L242 525L243 525L242 520z"/>
<path style="fill:#ada1a8; stroke:none;" d="M289 521L289 522L299 522L289 521M89 521L89 523L91 521L89 521z"/>
<path style="fill:#505050; stroke:none;" d="M125 521L126 528L104 528L104 529C111.285 532.506 132.045 534.255 125 521M153 521L154 522L153 521M165 521L165 528L166 528L165 521M171 521L172 522L171 521M205 521L206 528L180 528C185.758 533.88 212.332 534.796 205 521M239 521L240 528L218 528L218 529C225.285 532.506 246.045 534.255 239 521z"/>
<path style="fill:#ada1a8; stroke:none;" d="M280.667 521.333L281.333 521.667L280.667 521.333M306 521L306 523L308 521L306 521z"/>
<path style="fill:#505050; stroke:none;" d="M313 521L313 528L314 528L313 521z"/>
<path style="fill:#ada1a8; stroke:none;" d="M340 521L340 523L342 521L340 521z"/>
<path style="fill:#191919; stroke:none;" d="M90 522C84.1393 529.702 71.6799 527 63 527L63 528C72.0278 528.388 88.1484 532.803 92 522L90 522z"/>
<path style="fill:#505050; stroke:none;" d="M97 522L97 523L99 525L100 525L97 522z"/>
<path style="fill:#ada1a8; stroke:none;" d="M164 522L164 527L165 527L164 522z"/>
<path style="fill:#fefefe; stroke:none;" d="M166 522L166 527L171 527L171 522L166 522z"/>
<path style="fill:#505050; stroke:none;" d="M211 522L211 523L213 525L214 525L211 522z"/>
<path style="fill:#ada1a8; stroke:none;" d="M279 522L280 523L279 522z"/>
<path style="fill:#191919; stroke:none;" d="M307 522C301.926 528.667 293.546 527 286 527L286 528C294.168 529.032 305.533 531.726 309 522L307 522M341 522C335.139 529.702 322.68 527 314 527L314 528C323.093 528 339.196 532.669 343 522L341 522z"/>
<path style="fill:#ada1a8; stroke:none;" d="M87.3333 523.667L87.6667 524.333L87.3333 523.667z"/>
<path style="fill:#505050; stroke:none;" d="M88.6667 523.333L89.3333 523.667L88.6667 523.333z"/>
<path style="fill:#191919; stroke:none;" d="M98 523L99 524L98 523z"/>
<path style="fill:#505050; stroke:none;" d="M138.667 523.333L139.333 523.667L138.667 523.333M150.667 523.333L151.333 523.667L150.667 523.333M172 523L170 530L174 529L172 523z"/>
<path style="fill:#191919; stroke:none;" d="M212 523L213 524L212 523z"/>
<path style="fill:#ada1a8; stroke:none;" d="M280 523L282 525L280 523z"/>
<path style="fill:#191919; stroke:none;" d="M281 523L282 524L281 523z"/>
<path style="fill:#ada1a8; stroke:none;" d="M283.333 523.667L283.667 524.333L283.333 523.667M304.333 523.667L304.667 524.333L304.333 523.667z"/>
<path style="fill:#505050; stroke:none;" d="M305.667 523.333L306.333 523.667L305.667 523.333z"/>
<path style="fill:#ada1a8; stroke:none;" d="M338.333 523.667L338.667 524.333L338.333 523.667z"/>
<path style="fill:#505050; stroke:none;" d="M339.667 523.333L340.333 523.667L339.667 523.333z"/>
<path style="fill:#191919; stroke:none;" d="M139 524L140 525L139 524z"/>
<path style="fill:#ada1a8; stroke:none;" d="M140 524L141 525L140 524M149 524L150 525L149 524M85.3333 525.667L85.6667 526.333L85.3333 525.667z"/>
<path style="fill:#505050; stroke:none;" d="M86.6667 525.333L87.3333 525.667L86.6667 525.333M100 525L102 527L102 525L100 525M139 525L139 526L142 526L139 525M148.667 525.333L149.333 525.667L148.667 525.333M214 525L216 527L216 525L214 525z"/>
<path style="fill:#ada1a8; stroke:none;" d="M285.333 525.667L285.667 526.333L285.333 525.667M302.333 525.667L302.667 526.333L302.333 525.667z"/>
<path style="fill:#505050; stroke:none;" d="M303.667 525.333L304.333 525.667L303.667 525.333z"/>
<path style="fill:#ada1a8; stroke:none;" d="M336.333 525.667L336.667 526.333L336.333 525.667z"/>
<path style="fill:#505050; stroke:none;" d="M337.667 525.333L338.333 525.667L337.667 525.333z"/>
<path style="fill:#ada1a8; stroke:none;" d="M142 526L143 527L142 526z"/>
<path style="fill:#505050; stroke:none;" d="M102 527L103 528L102 527z"/>
<path style="fill:#191919; stroke:none;" d="M103 527L103 528L126 528L103 527z"/>
<path style="fill:#505050; stroke:none;" d="M141 527L142 528L141 527z"/>
<path style="fill:#191919; stroke:none;" d="M166 527L166 528L172 528L166 527M177 527L177 528L206 528L177 527z"/>
<path style="fill:#505050; stroke:none;" d="M216 527L217 528L216 527z"/>
<path style="fill:#191919; stroke:none;" d="M217 527L217 528L240 528L217 527z"/>
</svg>
